{"title":"Little.England.2013.DVDRip.x264.HORiZON-ArtSubs","uid":9921107,"size":1880329636,"categoryP":"video","categoryS":"movies","magnet":"?xt=urn:btih:3b7da38d1412172c799271b2f85ae79f4a6fd8fe&amp;dn=Little.England.2013.DVDRip.x264.HORiZON-ArtSubs&amp;tr=udp%3A%2F%2Ftracker.openbittorrent.com%3A80&amp;tr=udp%3A%2F%2Fopen.demonii.com%3A1337&amp;tr=udp%3A%2F%2Ftracker.coppersurfer.tk%3A6969&amp;tr=udp%3A%2F%2Fexodus.desync.com%3A6969","seeders":22,"leechers":1,"uploader":"lletaif","files":1,"time":1397001043,"description":"Title:\nLittle England Aka Mikra Anglia\n\n\nCountry:\nGreece,2013\n\n\nLanguage:\nGreek\n\n\nSubtitle:\nEnglish in opensubtitles\n\n\nIMDB: &lt;a href=&quot;\nhttp://www.imdb.com/title/tt3253650/&quot; rel=&quot;nofollow&quot; target=&quot;_NEW&quot;&gt;\nhttp://www.imdb.com/title/tt3253650/&lt;/a&gt;\n\n\nPlot:\nOne home, one secret, one man, two sisters.\n\n\nMedia Info:\n\nGeneral\nUnique ID                                : 254519655392238182544303520880444774809 (0xBF7AB3DBFCF917D68AD71AC09D131999)\nComplete name                            : Little.England.2013.DVDRip.x264.HORiZON-ArtSubs.mkv\nFormat                                   : Matroska\nFormat version                           : Version 4 / Version 2\nFile size                                : 1.75 GiB\nDuration                                 : 2h 32mn\nOverall bit rate                         : 1 639 Kbps\nMovie name                               : Mikra Anglia (Pantelis Voulgaris, 2013)\nEncoded date                             : UTC 2014-04-06 02:07:48\nWriting application                      : mkvmerge v6.8.0\nWriting library                          : libebml v1.3.0 + libmatroska v1.4.1\n\nVideo\nID                                       : 1\nFormat                                   : AVC\nFormat/Info                              : Advanced Video Codec\nFormat profile                           : &lt;a class=&quot;__cf_email__&quot; href=&quot;/cdn-cgi/l/email-protection&quot; data-cfemail=&quot;bef6d7d9d6fef28d908f&quot;&gt;[email&amp;#160;protected]&lt;/a&gt;&lt;script cf-hash='f9e31' type=&quot;text/javascript&quot;&gt;\n/* &lt;![CDATA[ */!function(){try{var t=&quot;currentScript&quot;in document?document.currentScript:function(){for(var t=document.getElementsByTagName(&quot;script&quot;),e=t.length;e--;)if(t[e].getAttribute(&quot;cf-hash&quot;))return t[e]}();if(t&amp;&amp;t.previousSibling){var e,r,n,i,c=t.previousSibling,a=c.getAttribute(&quot;data-cfemail&quot;);if(a){for(e=&quot;&quot;,r=parseInt(a.substr(0,2),16),n=2;a.length-n;n+=2)i=parseInt(a.substr(n,2),16)^r,e+=String.fromCharCode(i);e=document.createTextNode(e),c.parentNode.replaceChild(e,c)}}}catch(u){}}();/* ]]&gt; */&lt;/script&gt;\nFormat settings, CABAC                   : Yes\nFormat settings, ReFrames                : 5 frames\nCodec ID                                 : V_MPEG4/ISO/AVC\nDuration                                 : 2h 32mn\nBit rate                                 : 1 445 Kbps\nWidth                                    : 718 pixels\nHeight                                   : 426 pixels\nDisplay aspect ratio                     : 2.40:1\nFrame rate mode                          : Constant\nFrame rate                               : 25.000 fps\nColor space                              : YUV\nChroma subsampling                       : 4:2:0\nBit depth                                : 8 bits\nScan type                                : Progressive\nBits/(Pixel*Frame)                       : 0.189\nStream size                              : 1.51 GiB (86%)\nWriting library                          : x264 core 138 r2358 9e941d1\nEncoding settings                        : cabac=1 / ref=5 / deblock=1:-1:-1 / analyse=0x3:0x113 / me=umh / subme=7 / psy=1 / psy_rd=1.00:0.15 / mixed_ref=1 / me_range=24 / chroma_me=1 / trellis=2 / 8x8dct=1 / cqm=0 / deadzone=21,11 / fast_pskip=0 / chroma_qp_offset=-3 / threads=3 / lookahead_threads=1 / sliced_threads=0 / nr=0 / decimate=1 / interlaced=0 / bluray_compat=0 / constrained_intra=0 / bframes=3 / b_pyramid=2 / b_adapt=2 / b_bias=0 / direct=1 / weightb=1 / open_gop=0 / weightp=2 / keyint=250 / keyint_min=25 / scenecut=40 / intra_refresh=0 / rc_lookahead=50 / rc=2pass / mbtree=1 / bitrate=1445 / ratetol=1.0 / qcomp=0.60 / qpmin=0 / qpmax=69 / qpstep=4 / cplxblur=20.0 / qblur=0.5 / vbv_maxrate=17500 / vbv_bufsize=17500 / nal_hrd=none / ip_ratio=1.40 / aq=1:1.00\nDefault                                  : Yes\nForced                                   : No\n\nAudio\nID                                       : 2\nFormat                                   : AC-3\nFormat/Info                              : Audio Coding 3\nMode extension                           : CM (complete main)\nFormat settings, Endianness              : Big\nCodec ID                                 : A_AC3\nDuration                                 : 2h 32mn\nBit rate mode                            : Constant\nBit rate                                 : 192 Kbps\nChannel count                            : 2 channels\nChannel positions                        : Front: L R\nSampling rate                            : 48.0 KHz\nBit depth                                : 16 bits\nCompression mode                         : Lossy\nStream size                              : 210 MiB (12%)\nLanguage                                 : Greek\nDefault                                  : Yes\nForced                                   : No\n\nMenu\n00:00:00.000                             : en:Chapter 1\n00:07:21.600                             : en:Chapter 2\n00:26:21.600                             : en:Chapter 3\n00:37:53.760                             : en:Chapter 4\n00:55:01.440                             : en:Chapter 5\n01:07:21.120                             : en:Chapter 6\n01:19:48.480                             : en:Chapter 7\n01:32:24.480                             : en:Chapter 8\n01:40:02.880                             : en:Chapter 9\n01:59:24.000                             : en:Chapter 10\n02:08:17.280                             : en:Chapter 11\n02:29:00.480                             : en:Chapter 12","torrent":{"xt":"urn:btih:3b7da38d1412172c799271b2f85ae79f4a6fd8fe","amp;dn":"Little.England.2013.DVDRip.x264.HORiZON-ArtSubs","amp;tr":["udp%3A%2F%2Ftracker.openbittorrent.com%3A80","udp%3A%2F%2Fopen.demonii.com%3A1337","udp%3A%2F%2Ftracker.coppersurfer.tk%3A6969","udp%3A%2F%2Fexodus.desync.com%3A6969"],"infoHash":"3b7da38d1412172c799271b2f85ae79f4a6fd8fe","infoHashBuffer":{"type":"Buffer","data":[59,125,163,141,20,18,23,44,121,146,113,178,248,90,231,159,74,111,216,254]},"announce":[],"urlList":[]}}